<svg width="1357" height="1434" viewBox="0 0 1357 1434" fill="none" xmlns="http://www.w3.org/2000/svg">
<path d="M695.155 1433.02C572.443 1433.02 467.141 1411.96 379.142 1369.85C291.196 1326.46 219.336 1270.1 163.563 1200.68C107.79 1130.04 66.3035 1054.48 38.9989 973.94C13.0173 892.135 0 812.869 0 736.038V695.135C0 610.895 13.5993 527.873 40.9039 446.067C67.7085 363.861 109.969 287.532 165.415 221.182C222.405 154.245 293.683 101.013 379.195 61.3806C465.871 20.372 568.052 0 685.789 0C808.501 0 916.925 22.9119 1011.06 68.7886C1105.25 114.612 1180.23 178.427 1235.95 260.232C1293 340.768 1326.44 435.537 1336.34 544.594H1029.64C1021.01 490.092 1001.17 443.58 970.159 405.165C939.203 366.749 898.934 337.011 849.352 315.951C801.04 294.891 746.537 284.361 685.842 284.361C625.095 284.361 571.174 294.944 524.078 315.951C478.112 336.177 437.412 366.701 405.124 405.165C374.168 443.58 349.985 489.457 332.629 542.742C316.543 594.757 308.499 653.015 308.499 717.465C308.499 780.645 316.543 838.85 332.629 892.135C348.853 942.127 374.046 988.747 406.976 1029.71C440.661 1068.29 482.603 1098.78 529.688 1118.93C578 1138.72 633.138 1148.66 695.102 1148.66C789.293 1148.66 868.56 1125.75 933.012 1079.87C998.68 1034.05 1038.31 970.871 1051.97 890.283H1356.76C1346.08 988.179 1311.64 1081.98 1256.43 1163.53C1201.93 1245.28 1126.95 1310.95 1031.54 1360.53C937.351 1408.84 825.222 1433.02 695.155 1433.02Z" fill="#5061FC"/>
</svg>
